<svg width="46" height="55" viewBox="0 0 46 55" fill="none" xmlns="http://www.w3.org/2000/svg">
<rect x="23.8674" y="39.905" width="3" height="15.4187" rx="1.5" transform="rotate(-20 23.8674 39.905)" fill="#2A61EF"/>
<rect x="17" y="42" width="3" height="13" rx="1.5" fill="#2A61EF"/>
<g clip-path="url(#clip0_104_2200)">
<path d="M40.0538 15.0986C38.8511 14.7603 37.5391 15.1064 36.6707 15.9909L34.0363 18.6436C32.9077 14.7374 28.8469 12.3289 24.6334 13.0667L24.4939 13.0913L16.5952 7.85841C15.5192 7.13994 14.1783 6.86737 12.8723 7.10165L1.92111 9.03263C1.01463 9.19247 0.402895 10.0202 0.554741 10.8814C0.706586 11.7425 1.56452 12.3111 2.471 12.1512L13.4221 10.2202C13.8573 10.1446 14.3033 10.2353 14.6631 10.4725L19.8504 13.91L9.86127 15.6714C5.33199 16.4754 2.27583 20.6102 3.02923 24.9149L5.22878 37.3891C5.99308 41.6918 10.2791 44.5321 14.8102 43.7384L29.5824 41.1337C33.7941 40.3858 36.7863 36.7337 36.5108 32.6771L39.8895 34.2744C41.522 35.052 43.5304 34.41 44.3752 32.8403C44.7062 32.2254 44.8208 31.5282 44.7018 30.8534L42.359 17.5668C42.155 16.3842 41.2609 15.427 40.0538 15.0986ZM33.1317 32.469C33.5872 35.0525 31.7519 37.5356 29.0325 38.0151L14.2603 40.6198C11.5409 41.0993 8.96702 39.3937 8.51148 36.8102L6.31195 24.3361C5.85641 21.7526 7.6917 19.2695 10.4112 18.79L25.1833 16.1853C27.9027 15.7057 30.4766 17.4114 30.9321 19.9948L33.1317 32.469ZM41.409 31.4227L35.8702 28.8044L34.7589 22.5019L39.0682 18.1471L41.409 31.4227Z" fill="#2A61EF"/>
</g>
<defs>
<clipPath id="clip0_104_2200">
<rect width="40" height="38" fill="white" transform="translate(0.00463867 7.76172) rotate(-10)"/>
</clipPath>
</defs>
</svg>
