<svg width="200" height="86" viewBox="0 0 200 86" fill="none" xmlns="http://www.w3.org/2000/svg">
<path d="M187 29.6C192.741 29.6 197.4 34.2592 197.4 40L197.4 50.4L176.6 50.4L176.6 40C176.6 34.2592 181.259 29.6 187 29.6Z" fill="#2A61EF"/>
<ellipse cx="186.5" cy="43" rx="2.5" ry="3" fill="white"/>
<ellipse cx="185" cy="43.5" rx="1" ry="1.5" fill="#163BF3"/>
<ellipse cx="180.5" cy="43" rx="2.5" ry="3" fill="white"/>
<ellipse cx="179" cy="43.5" rx="1" ry="1.5" fill="#163BF3"/>
<g clip-path="url(#clip0_0_1)">
<path d="M42.0711 68.9289C40.6725 67.5304 38.8907 66.578 36.9509 66.1921C35.0111 65.8063 33.0004 66.0043 31.1732 66.7612C29.3459 67.5181 27.7841 68.7998 26.6853 70.4443C25.5865 72.0888 25 74.0222 25 76C25 77.9778 25.5865 79.9112 26.6853 81.5557C27.7841 83.2002 29.3459 84.4819 31.1732 85.2388C33.0004 85.9957 35.0111 86.1937 36.9509 85.8079C38.8907 85.422 40.6725 84.4696 42.0711 83.0711L35 76L42.0711 68.9289Z" fill="#FED940"/>
</g>
<circle cx="51.5" cy="76.5" r="3.5" fill="#27BEFF"/>
<circle cx="61.5" cy="76.5" r="3.5" fill="#27BEFF"/>
<circle cx="137.5" cy="76.5" r="3.5" fill="#27BEFF"/>
<circle cx="147.5" cy="76.5" r="3.5" fill="#27BEFF"/>
<circle cx="157.5" cy="76.5" r="3.5" fill="#27BEFF"/>
<circle cx="167.5" cy="76.5" r="3.5" fill="#27BEFF"/>
<circle cx="177.5" cy="76.5" r="3.5" fill="#27BEFF"/>
<circle cx="187.5" cy="70.5" r="3.5" fill="#27BEFF"/>
<circle cx="187.5" cy="59.5" r="3.5" fill="#27BEFF"/>
<g clip-path="url(#clip1_0_1)">
<path d="M13.2541 4.81803C18.9077 3.82115 24.3052 7.6005 25.302 13.2541L27.108 23.4961L6.62397 27.108L4.81803 16.866C3.82115 11.2124 7.60051 5.8149 13.2541 4.81803Z" fill="#CAC1FF"/>
</g>
<ellipse cx="10.1646" cy="18.9695" rx="2.5" ry="3" transform="rotate(-10 10.1646 18.9695)" fill="white"/>
<circle cx="9.99098" cy="17.9847" r="1" transform="rotate(-10 9.99098 17.9847)" fill="#163BF3"/>
<ellipse cx="17.0582" cy="17.7539" rx="2.5" ry="3" transform="rotate(-10 17.0582 17.7539)" fill="white"/>
<circle cx="16.8845" cy="16.7692" r="1" transform="rotate(-10 16.8845 16.7692)" fill="#163BF3"/>
<defs>
<clipPath id="clip0_0_1">
<rect width="20" height="20" fill="white" transform="translate(25 66)"/>
</clipPath>
<clipPath id="clip1_0_1">
<rect width="26" height="26" fill="white" transform="translate(0 4.51489) rotate(-10)"/>
</clipPath>
</defs>
</svg>
