<svg width="52" height="52" viewBox="0 0 52 52" fill="none" xmlns="http://www.w3.org/2000/svg">
<g clip-path="url(#clip0_89_7146)">
<path d="M43.5064 31.758L42.9896 24.314C42.8559 22.3842 42.1653 20.5347 41.0017 18.9895C39.838 17.4443 38.2511 16.2698 36.4334 15.6083L34.3191 14.8387L34.7915 10.3247C34.86 9.66195 34.7053 8.99527 34.3517 8.4305C33.9982 7.86573 33.4661 7.43524 32.84 7.20735C32.2139 6.97946 31.5296 6.96723 30.8957 7.17262C30.2619 7.378 29.7148 7.78922 29.3413 8.341L26.8016 12.1026L19.5973 9.4804C17.5203 8.72725 15.2294 8.82865 13.227 9.76235C11.2247 10.6961 9.67444 12.3858 8.91632 14.461L4.35605 26.9902C3.99977 27.9796 3.96513 29.0562 4.25709 30.0664C4.54904 31.0766 5.15267 31.9688 5.98181 32.6155C5.78675 32.9309 5.62311 33.2646 5.49325 33.6118C4.96411 35.0656 5.03416 36.6701 5.68799 38.0722C6.34182 39.4744 7.52587 40.5594 8.97967 41.0885C10.4335 41.6176 12.0379 41.5476 13.4401 40.8938C14.8422 40.2399 15.9272 39.0559 16.4563 37.6021C16.5493 37.339 16.6231 37.0694 16.6771 36.7956L26.2025 40.2626C26.0679 40.507 25.9512 40.7609 25.8533 41.0223C25.3241 42.4761 25.3942 44.0805 26.048 45.4827C26.7018 46.8848 27.8859 47.9698 29.3397 48.4989C30.7935 49.0281 32.3979 48.958 33.8001 48.3042C35.2022 47.6504 36.2872 46.4663 36.8163 45.0125C36.9401 44.663 37.0292 44.3022 37.0825 43.9353C38.1334 43.9728 39.1692 43.6773 40.0422 43.0911C40.9152 42.505 41.5807 41.6579 41.9438 40.671L42.4442 39.296C43.3252 36.8861 43.6872 34.3174 43.5064 31.758ZM39.6648 24.5458L39.9968 29.3206L34.4009 27.2839C33.9855 27.1327 33.6472 26.8227 33.4604 26.4221C33.2736 26.0215 33.2536 25.5631 33.4048 25.1477L35.6746 18.9113C36.7907 19.3968 37.7526 20.1785 38.456 21.1717C39.1593 22.165 39.5774 23.3319 39.6648 24.5458ZM13.324 36.462C13.0972 37.0851 12.6323 37.5925 12.0313 37.8727C11.4304 38.1529 10.7428 38.183 10.1197 37.9562C9.49668 37.7294 8.98923 37.2644 8.70902 36.6635C8.4288 36.0626 8.39878 35.375 8.62555 34.7519C8.72394 34.4846 8.86984 34.2373 9.05622 34.0219L13.4634 35.6259C13.4677 35.9107 13.4205 36.194 13.324 36.462ZM30.4797 45.3666C29.8567 45.1399 29.3492 44.6749 29.069 44.0739C28.7888 43.473 28.7588 42.7854 28.9856 42.1623C29.0839 41.895 29.2298 41.6477 29.4162 41.4323L33.8234 43.0364C33.8277 43.3212 33.7805 43.6044 33.684 43.8725C33.4572 44.4955 32.9923 45.003 32.3913 45.2832C31.7904 45.5634 31.1028 45.5934 30.4797 45.3666ZM38.8114 39.531C38.6603 39.9463 38.3503 40.2847 37.9497 40.4715C37.549 40.6583 37.0906 40.6783 36.6753 40.5271L8.48448 30.2665C8.06911 30.1153 7.73081 29.8053 7.544 29.4047C7.35719 29.0041 7.33718 28.5457 7.48836 28.1303L12.0486 15.6011C12.5022 14.355 13.4322 13.3401 14.634 12.7796C15.8358 12.2192 17.2111 12.1592 18.4572 12.6127L32.5526 17.743L30.2725 24.0076C29.8189 25.2537 29.8789 26.629 30.4394 27.8308C30.9998 29.0327 32.0147 29.9626 33.2608 30.4162L40.1973 32.9409C40.2164 34.7182 39.9166 36.4845 39.3119 38.1559L38.8114 39.531ZM24.4339 25.4298C24.2827 25.8452 23.9727 26.1835 23.5721 26.3703C23.1715 26.5571 22.7131 26.5771 22.2977 26.426L20.7316 25.8559L20.1615 27.4221C20.0104 27.8374 19.7004 28.1757 19.2998 28.3626C18.8991 28.5494 18.4407 28.5694 18.0254 28.4182C17.61 28.267 17.2717 27.957 17.0849 27.5564C16.8981 27.1558 16.8781 26.6974 17.0292 26.282L17.5993 24.7159L16.0331 24.1458C15.6177 23.9946 15.2794 23.6846 15.0926 23.284C14.9058 22.8834 14.8858 22.425 15.037 22.0096C15.1882 21.5943 15.4982 21.256 15.8988 21.0692C16.2994 20.8823 16.7578 20.8623 17.1732 21.0135L18.7393 21.5835L19.3094 20.0174C19.4606 19.602 19.7705 19.2637 20.1712 19.0769C20.5718 18.8901 21.0302 18.8701 21.4456 19.0213C21.8609 19.1725 22.1992 19.4825 22.386 19.8831C22.5728 20.2837 22.5929 20.7421 22.4417 21.1575L21.8716 22.7236L23.4378 23.2936C23.8532 23.4448 24.1915 23.7548 24.3783 24.1554C24.5651 24.5561 24.5851 25.0145 24.4339 25.4298Z" fill="#2A61EF"/>
</g>
<defs>
<clipPath id="clip0_89_7146">
<rect width="40" height="40" fill="white" transform="translate(14.0466 0.365723) rotate(20)"/>
</clipPath>
</defs>
</svg>
